# xmcd
#
# Track frame offsets:
#	150
#	23575
#	38075
#	68800
#
# Disc length: 1134 seconds
#
# Revision: 1
# Processed by: cddbd v1.5.2PL0 Copyright (c) Steve Scherf et al.
# Submitted via: audiograbber 1.83.01
#
DISCID=27046c04
DTITLE=SharonDee Clarke - Mr. Right
DYEAR=1990
DGENRE=pop
TTITLE0=Mr. Right (The Orr-Some Mix)
TTITLE1=Enough
TTITLE2=Mr. Right
TTITLE3=Summer Days
EXTD=
EXTT0=
EXTT1=
EXTT2=
EXTT3=
PLAYORDER=
